<svg width="256px" height="256px" viewBox="0 0 256 256" version="1.1" xmlns="http://www.w3.org/2000/svg" xmlns:xlink="http://www.w3.org/1999/xlink">
    <g stroke="none" stroke-width="1" fill="none" fill-rule="evenodd">
        <g transform="translate(-569.000000, -354.000000)" fill="#1877F2" fill-rule="nonzero">
            <g transform="translate(569.000000, 354.000000)">
                <path d="M128,0 C198.692448,0 256,57.307552 256,128 C256,198.692448 198.692448,256 128,256 C57.307552,256 0,198.692448 0,128 C0,57.307552 57.307552,0 128,0 Z M111.978724,58.9272461 L61.2035437,58.9272461 C60.651259,58.9272461 60.2035437,59.3749613 60.2035437,59.9272461 C60.2035437,60.1343514 60.2678469,60.3363476 60.3875731,60.5053394 L72.8039755,78.0309175 C72.8169921,78.0492903 72.8306255,78.0672182 72.8448524,78.0846705 L112.339879,126.533708 C112.638443,126.89996 112.639895,127.42521 112.343359,127.793107 L71.9379702,177.922094 C71.9371885,177.923064 71.9364086,177.924036 71.9356305,177.925008 L58.0356032,195.302607 C57.6906247,195.733894 57.7605914,196.363181 58.1918782,196.70816 C58.3691822,196.849982 58.5894702,196.927246 58.816517,196.927246 L111.725379,196.927246 C112.277664,196.927246 112.725379,196.479531 112.725379,195.927246 L112.725379,181.766814 C112.725379,181.251037 112.333101,180.819872 111.81962,180.771265 L99.735061,179.627316 C99.1852342,179.575268 98.7817046,179.087352 98.8337523,178.537525 C98.8519244,178.345558 98.9252101,178.162938 99.0447822,178.011662 L126.266556,143.572266 C126.609031,143.138988 127.237902,143.065376 127.67118,143.40785 C127.728353,143.453041 127.780415,143.504347 127.826437,143.560852 L155.865731,177.98678 C156.214508,178.415 156.150107,179.044881 155.721887,179.393659 C155.566033,179.5206 155.375541,179.597625 155.175258,179.614688 L141.508466,180.779042 C140.990962,180.823131 140.593354,181.256054 140.593354,181.775433 L140.593354,195.927246 C140.593354,196.479531 141.04107,196.927246 141.593354,196.927246 L196.741591,196.927246 C197.293875,196.927246 197.741591,196.479531 197.741591,195.927246 C197.741591,195.711631 197.671901,195.501791 197.542913,195.329014 L184.564978,177.945284 C184.554162,177.930797 184.542955,177.916605 184.53137,177.902726 L142.371165,127.391689 C142.07217,127.03347 142.060649,126.516085 142.343405,126.144913 L178.968638,78.067041 C178.972983,78.0613369 178.977267,78.0555861 178.981489,78.0497898 L191.75201,60.5159803 C192.077159,60.0695538 191.978844,59.4440683 191.532417,59.1189194 C191.361392,58.9943549 191.155264,58.9272461 190.943683,58.9272461 L141.086664,58.9272461 C140.534379,58.9272461 140.086664,59.3749613 140.086664,59.9272461 L140.086664,74.2159584 C140.086664,74.7314253 140.478485,75.1624383 140.991618,75.2114313 L152.973562,76.3554446 C153.523347,76.407937 153.926482,76.8961789 153.873989,77.4459634 C153.856008,77.6342913 153.784974,77.8136551 153.669134,77.9632276 L128.197832,110.851894 C127.859662,111.28854 127.23155,111.368371 126.794904,111.030202 C126.732169,110.981615 126.67544,110.925735 126.625914,110.863739 L100.429599,78.0719276 C100.084887,77.6404275 100.155243,77.0111835 100.586744,76.666472 C100.734248,76.5486356 100.912096,76.4749619 101.099719,76.4539719 L112.089904,75.2244633 C112.596009,75.1678437 112.978724,74.7399246 112.978724,74.230663 L112.978724,59.9272461 C112.978724,59.3749613 112.531009,58.9272461 111.978724,58.9272461 Z"></path>
            </g>
        </g>
    </g>
</svg>