<?xml version="1.0" encoding="UTF-8"?>
<svg width="256px" height="256px" viewBox="0 0 256 256" version="1.1" xmlns="http://www.w3.org/2000/svg" xmlns:xlink="http://www.w3.org/1999/xlink">
    <title>Combined Shape</title>
    <g  stroke="none" stroke-width="1" fill="none" fill-rule="evenodd">
        <g transform="translate(-569.000000, -354.000000)" fill="#1877f2" fill-rule="nonzero">
            <path d="M697,354 C767.692448,354 825,411.307552 825,482 C825,552.692448 767.692448,610 697,610 C626.307552,610 569,552.692448 569,482 C569,411.307552 626.307552,354 697,354 Z M681.978724,412.927246 L628.269536,412.927246 L628.269536,429.125028 L641.823506,432.058485 L681.852052,481.161997 L640.936798,531.923549 L625.736084,534.857006 L625.736084,550.927246 L681.725379,550.927246 L681.725379,534.857006 L666.904683,533.454048 L696.039385,496.594529 L726.060794,533.454048 L709.593354,534.857006 L709.593354,550.927246 L767.736084,550.927246 L767.736084,534.857006 L753.548751,531.923549 L710.86008,480.779372 L747.975156,432.058485 L761.909144,429.125028 L761.909144,412.927246 L709.086664,412.927246 L709.086664,429.125028 L723.780687,430.527985 L696.419402,465.857006 L668.298082,430.655527 L681.978724,429.125028 L681.978724,412.927246 Z" ></path>
        </g>
    </g>
</svg>