<svg viewBox="0 0 32 33" width="32" height="33" version="1.1" xmlns="http://www.w3.org/2000/svg" xmlns:xlink="http://www.w3.org/1999/xlink">
    <g stroke="none" stroke-width="1" fill="none" fill-rule="evenodd">
        <g transform="translate(-977.000000, -433.000000)" fill-rule="nonzero">
            <g transform="translate(-1.000000, 0.000000)">
                <g transform="translate(908.000000, 419.000000)">
                    <g transform="translate(70.000000, 14.000000)">
                        <path d="M31.98475,16.8087137 C31.98475,15.4567214 31.875875,14.4701221 31.64025,13.4469962 L16.31875,13.4469962 L16.31875,19.5492252 L25.312125,19.5492252 C25.130875,21.0657137 24.15175,23.3495153 21.975875,24.8841412 L21.945375,25.0884389 L26.78975,28.8699618 L27.125375,28.9037176 C30.20775,26.0352366 31.98475,21.8147634 31.98475,16.8087137" fill="#4285F4"></path>
                        <path d="M16.31875,32.8866412 C20.72475,32.8866412 24.423625,31.4249427 27.125375,28.9037176 L21.975875,24.8841412 C20.597875,25.8524771 18.748375,26.5284733 16.31875,26.5284733 C12.003375,26.5284733 8.34075,23.6601183 7.035125,19.695458 L6.84375,19.7118321 L1.8065,23.6399656 L1.740625,23.8244885 C4.424125,29.1959313 9.93625,32.8866412 16.31875,32.8866412" fill="#34A853"></path>
                        <path d="M7.035125,19.695458 C6.690625,18.6723321 6.49125,17.5760267 6.49125,16.4433206 C6.49125,15.3104885 6.690625,14.2143092 7.017,13.1911832 L7.007875,12.9732824 L1.9075,8.9820458 L1.740625,9.06202672 C0.634625,11.2910382 0,13.794126 0,16.4433206 C0,19.0925153 0.634625,21.5954771 1.740625,23.8244885 L7.035125,19.695458" fill="#FBBC05"></path>
                        <path d="M16.31875,6.35804198 C19.383,6.35804198 21.45,7.69177099 22.628625,8.80633969 L27.234125,4.27526336 C24.405625,1.6260687 20.72475,0 16.31875,0 C9.93625,0 4.424125,3.69058397 1.740625,9.06202672 L7.017,13.1911832 C8.34075,9.2265229 12.003375,6.35804198 16.31875,6.35804198" fill="#EB4335"></path>
                    </g>
                </g>
            </g>
        </g>
    </g>
</svg>